HIERARCHY
ROOT Hips
{
	OFFSET	0.00	0.00	0.00
	CHANNELS 6 Xposition Yposition Zposition Zrotation Xrotation Yrotation
	JOINT Spine
	{
		OFFSET	 0.00	0.01	 0.00
		CHANNELS 3 Zrotation Xrotation Yrotation
		JOINT Spine1
		{
			OFFSET	 0.00	 2.45913012437421	 0.00
			CHANNELS 3 Zrotation Xrotation Yrotation
            JOINT Neck
            {
                OFFSET	 0.00	 2.48462964506057	 0.00
                CHANNELS 3 Zrotation Xrotation Yrotation
                JOINT Head
                {
                    OFFSET	 0.00	 0.927524780924562	 0.00
                    CHANNELS 3 Zrotation Xrotation Yrotation
                    End Site 
                    {
                        OFFSET	 0.00	 1.14999962169752	 0.00
                    }
                }
            }
			JOINT LeftShoulder
			{
				OFFSET	 0.00	 2.48462964506057	 0.00
				CHANNELS 3 Zrotation Xrotation Yrotation
				JOINT LeftUpArm
				{
					OFFSET	 0.00	 1.24881979654096	 0.00
					CHANNELS 3 Zrotation Xrotation Yrotation
					JOINT LeftForeArm
					{
						OFFSET	 0.00	2.59758046908119	 0.00
						CHANNELS 3 Zrotation Xrotation Yrotation
						JOINT LeftHand
						{
							OFFSET	 0.00	2.45542024364365	 0.00
							CHANNELS 3 Zrotation Xrotation Yrotation
							JOINT LeftHandThumb 
							{
								OFFSET	 0.00	0.00	 0.00
								CHANNELS 3 Zrotation Xrotation Yrotation
								End Site
								{
									OFFSET	 0.00	0.00	1.00000003353624
								}
							}
							JOINT L_Wrist_End 
							{
								OFFSET	 0.00	0.99999967115358	 0.00
								CHANNELS 3 Zrotation Xrotation Yrotation
								End Site 
								{
									OFFSET	 0.00	 0.00	 0.00
								}
							}
						}
					}
				}
			}
			JOINT RightShoulder
			{
				OFFSET	 0.00	 2.48462964506057	 0.00
				CHANNELS 3 Zrotation Xrotation Yrotation
				JOINT RightUpArm
				{
					OFFSET	 0.00	 1.24881979654096	 0.00
					CHANNELS 3 Zrotation Xrotation Yrotation
					JOINT RightForeArm
					{
						OFFSET	 0.00	2.59758046908119	 0.00
						CHANNELS 3 Zrotation Xrotation Yrotation
						JOINT RightHand
						{
							OFFSET	 0.00	2.45542024364365	 0.00
							CHANNELS 3 Zrotation Xrotation Yrotation
							JOINT RightHandThumb 
							{
								OFFSET	 0.00	0.00	 0.00
								CHANNELS 3 Zrotation Xrotation Yrotation
								End Site
								{
									OFFSET	 0.00	0.00	1.00000003353624
								}
							}
							JOINT R_Wrist_End 
							{
								OFFSET	 0.00	0.99999967115358	 0.00
								CHANNELS 3 Zrotation Xrotation Yrotation
								End Site 
								{
									OFFSET	 0.00	 0.00	 0.00
								}
							}
						}
					}
				}
			}
		}
	}
	JOINT LeftUpLeg
	{
		OFFSET	 1.2719394002717	 0.00	 0.00
		CHANNELS 3 Zrotation Xrotation Yrotation
		JOINT LeftLowLeg
		{
			OFFSET	 0.00	-4.3429100912261	 0.00
			CHANNELS 3 Zrotation Xrotation Yrotation
			JOINT LeftFoot
			{
				OFFSET	 0.00	-4.48767017425826	 0.00
				CHANNELS 3 Zrotation Xrotation Yrotation
				JOINT LeftToeBase
                {
                    OFFSET	 0.00	0.00	 1.51507020887566
                    CHANNELS 3 Zrotation Xrotation Yrotation
                    End Site 
                    {
                        OFFSET	 0.00	0.00	 0.75000010571191
                    }
                }
			}
		}
	}
	JOINT RightUpLeg
	{
		OFFSET	 -1.2719393604653	 0.00	 0.00
		CHANNELS 3 Zrotation Xrotation Yrotation
		JOINT RightLowLeg
		{
			OFFSET	 0.00	-4.3429100912261	 0.00
			CHANNELS 3 Zrotation Xrotation Yrotation
			JOINT RightFoot
			{
				OFFSET	 0.00	-4.48767017425826	 0.00
				CHANNELS 3 Zrotation Xrotation Yrotation
				JOINT RightToeBase
                {
                    OFFSET	 0.00	0.00	 1.51507020887566
                    CHANNELS 3 Zrotation Xrotation Yrotation
                    End Site 
                    {
                        OFFSET	 0.00	0.00	 0.749999965609858
                    }
                }   
			}
		}
	}
}
MOTION 
Frames:	13 
Frame Time: 0.02 
  1.008949966430664 6.72989013671875 9.774840087890626 -159.921 79.3582 157.372 5.11291 -15.4136 -3.43362 -1.76835 3.43622 -3.35584 16.8038 41.35 -12.6975 12.4524 -41.4801 25.9548 -102.7737 -5.79592 4.82901 -36.1085 13.0732 21.693 0.0 42.6066 0.0 14.6111 -8.838 23.0218 0.0 0.0 0.0 0.0 0.0 0.0 100.4442 -6.73282 5.93606 -11.4212 42.7687 69.2819 0.0 141.779 0.0 -45.1413 11.542 -3.14569 0.0 0.0 0.0 0.0 0.0 0.0 7.437 -7.73938 0.00536279 0.0 6.97882 0.0 8.61476 4.587 -1.29957 0.0 -32.6763 0.0 3.27168 -5.53345 3.763 0.0 4.72458 0.0 8.35988 10.37189 -7.59225 0.0 -27.1285 0.0 
  1.018280029296875 6.727479858398437 9.773660278320312 -160.157 79.3105 157.472 5.31234 -15.1432 -3.36834 -2.19765 2.85165 -3.38708 17.174 41.329 -12.9484 12.6626 -40.984 26.264 -102.9227 -5.65822 5.45765 -37.4676 12.6544 25.5368 0.0 39.5552 0.0 14.7932 -9.25946 19.366 0.0 0.0 0.0 0.0 0.0 0.0 100.589 -6.78546 5.5569 -11.141 42.6375 69.4939 0.0 141.944 0.0 -44.8246 10.9423 -2.42594 0.0 0.0 0.0 0.0 0.0 0.0 7.37154 -7.74312 0.0192028 0.0 6.97123 0.0 8.62924 4.5347004 -1.19115 0.0 -32.6478 0.0 3.20244 -5.59354 3.70098 0.0 4.72069 0.0 8.36192 10.37229 -7.42466 0.0 -27.1209 0.0 
  1.0273999786376953 6.72573974609375 9.773729858398438 -160.338 79.3399 157.406 5.29709 -15.0747 -3.4295 -2.21603 2.92064 -3.44278 17.3603 41.0732 -13.0431 12.6343 -40.8925 26.9094 -103.3038 -5.66524 5.59253 -38.8923 12.1071 29.6331 0.0 36.7989 0.0 14.2854 -9.37031 19.3778 0.0 0.0 0.0 0.0 0.0 0.0 100.621 -6.64758 5.61154 -10.9452 42.607 69.2821 0.0 141.936 0.0 -45.4633 11.5989 -2.9067 0.0 0.0 0.0 0.0 0.0 0.0 7.29912 -7.63306 0.0854029 0.0 6.93762 0.0 8.64836 4.5296 -1.04452 0.0 -32.615997 0.0 3.12937 -5.61955 3.89607 0.0 4.75992 0.0 8.4076 10.394899 -7.38669 0.0 -27.1068 0.0 
  1.0375399780273438 6.724990234375 9.7735498046875 -160.706 79.2535 157.58 5.32404 -15.0912 -3.43882 -2.28158 2.91222 -3.46379 17.3858 40.9312 -12.944 12.8198 -40.9246 27.3322 -103.6679 -5.52467 5.73117 -40.3461 11.4037 33.4896 0.0 34.3836 0.0 13.7689 -9.45168 16.5334 0.0 0.0 0.0 0.0 0.0 0.0 100.6861 -6.56666 5.61106 -10.8729 42.4793 69.2251 0.0 142.023 0.0 -45.8892 11.8257 -3.15421 0.0 0.0 0.0 0.0 0.0 0.0 7.22451 -7.68857 0.126454 0.0 6.95183 0.0 8.69195 4.5063 -0.885967 0.0 -32.6101 0.0 3.05934 -5.76379 4.11304 0.0 4.79822 0.0 8.48618 10.38636 -7.4061 0.0 -27.095001 0.0 
  1.0476200103759765 6.722219848632813 9.773150024414063 -161.015 79.2222 157.577 5.3771 -15.0593 -3.33443 -2.36358 2.8652 -3.37953 17.5151 40.7209 -13.0992 12.9021 -40.8561 27.5611 -104.0606 -5.31715 5.96654 -41.7175 10.6768 37.1194 0.0 32.2916 0.0 12.707 -9.37626 13.4983 0.0 0.0 0.0 0.0 0.0 0.0 100.7552 -6.48745 5.58211 -10.8041 42.2317 69.2561 0.0 142.086 0.0 -45.984 12.1418 -3.54909 0.0 0.0 0.0 0.0 0.0 0.0 7.15643 -7.61868 0.322292 0.0 6.91593 0.0 8.72589 4.4594 -0.782374 0.0 -32.5838 0.0 2.98961 -5.84921 4.38131 0.0 4.82694 0.0 8.52609 10.39415 -7.37783 0.0 -27.0788 0.0 
  1.057949981689453 6.72135009765625 9.772650146484375 -161.121 79.2529 157.463 5.48 -14.9199 -3.21726 -2.54229 2.79589 -3.30393 17.7177 40.5786 -13.2537 13.1232 -41.1315 28.0654 -104.5099 -5.12048 6.19703 -42.8765 9.89224 40.1528 0.0 30.7128 0.0 11.002 -9.48976 10.9966 0.0 0.0 0.0 0.0 0.0 0.0 100.8408 -6.58551 5.61744 -10.6536 42.1401 69.1763 0.0 142.14 0.0 -46.1281 12.4096 -3.73174 0.0 0.0 0.0 0.0 0.0 0.0 7.08497 -7.5529 0.397455 0.0 6.95811 0.0 8.76406 4.4058 -0.648277 0.0 -32.5739 0.0 2.92109 -5.8805 4.54765 0.0 4.88909 0.0 8.5451 10.38074 -7.33834 0.0 -27.0442 0.0 
  1.0671800231933595 6.716320190429688 9.772150268554688 -161.405 79.2861 157.438 5.47761 -14.9458 -3.16116 -2.58124 2.93411 -3.24135 17.5775 40.4053 -13.0712 13.1136 -40.7768 28.0712 -104.9588 -4.95542 6.43911 -44.1728 8.92826 41.5772 0.0 29.3993 0.0 8.6135 -9.72061 9.25798 0.0 0.0 0.0 0.0 0.0 0.0 100.8785 -6.51497 5.5052 -10.665 42.0394 69.2821 0.0 142.131 0.0 -46.3238 12.7367 -3.67454 0.0 0.0 0.0 0.0 0.0 0.0 6.9971 -7.4043 0.595266 0.0 6.91058 0.0 8.80379 4.3697996 -0.540802 0.0 -32.5606 0.0 2.83217 -5.91343 4.75613 0.0 4.96142 0.0 8.57135 10.36432 -7.24274 0.0 -27.0755 0.0 
  1.0761399841308594 6.7127099609375 9.77208984375 -161.695 79.282 157.53 5.54955 -14.9484 -3.07557 -2.82954 3.03568 -3.18043 17.8894 40.2809 -13.2734 13.2719 -40.8354 28.7099 -105.2599 -4.86163 6.82424 -45.4856 8.13145 41.9693 0.0 28.1968 0.0 6.2538 -10.0623 7.69621 0.0 0.0 0.0 0.0 0.0 0.0 100.9368 -6.49193 5.77306 -10.2141 41.8831 69.0241 0.0 142.301 0.0 -46.2979 12.484 -3.71744 0.0 0.0 0.0 0.0 0.0 0.0 6.91692 -7.37013 0.85854 0.0 6.93976 0.0 8.88887 4.3272 -0.574033 0.0 -32.590202 0.0 2.75363 -5.96335 5.01135 0.0 5.00285 0.0 8.64163 10.34482 -7.29847 0.0 -27.0938 0.0 
  1.0840799713134766 6.710059814453125 9.771939697265625 -162.005 79.2446 157.664 5.64937 -14.9733 -2.95229 -3.13982 3.06929 -3.09421 18.1145 40.1378 -13.4711 13.4866 -40.7911 29.0212 -105.5157 -4.74976 7.04019 -46.6785 7.22422 42.065 0.0 27.204 0.0 4.09592 -10.4885 6.01693 0.0 0.0 0.0 0.0 0.0 0.0 101.0685 -6.55649 5.57378 -10.2249 41.7958 69.1901 0.0 142.361 0.0 -46.5225 12.5563 -3.54128 0.0 0.0 0.0 0.0 0.0 0.0 6.84549 -7.34929 1.00412 0.0 6.91032 0.0 8.93372 4.3111 -0.529571 0.0 -32.5677 0.0 2.68514 -6.07143 5.15346 0.0 5.08884 0.0 8.67167 10.324841 -7.25704 0.0 -27.1097 0.0 
  1.0909200286865235 6.7077001953125 9.771599731445313 -162.236 79.1873 157.806 5.6051 -15.0457 -2.94501 -3.17213 3.13364 -3.06645 17.9756 40.1152 -13.2379 13.7198 -40.8334 29.0765 -105.8232 -4.82341 7.11529 -47.7879 6.42383 42.197 0.0 26.4419 0.0 2.644 -10.8153 4.54492 0.0 0.0 0.0 0.0 0.0 0.0 100.9163 -6.68355 5.10739 -10.2567 41.8121 69.5448 0.0 142.463 0.0 -46.5595 12.7968 -3.66702 0.0 0.0 0.0 0.0 0.0 0.0 6.79657 -7.38441 1.08678 0.0 6.91729 0.0 8.97371 4.2798004 -0.519338 0.0 -32.5776 0.0 2.63456 -6.15722 5.22223 0.0 5.1233 0.0 8.71919 10.30965 -7.23627 0.0 -27.1151 0.0 
  1.0975399780273438 6.704829711914062 9.771580200195313 -162.337 79.1767 157.802 5.65988 -15.0511 -2.83558 -3.37684 3.18745 -2.97503 18.1398 40.0877 -13.3599 13.8897 -40.9163 29.3222 -105.8955 -4.97975 7.01324 -48.88 5.60723 42.041 0.0 26.0781 0.0 1.8859 -11.1593 3.34392 0.0 0.0 0.0 0.0 0.0 0.0 100.9666 -6.78311 5.11624 -10.2101 41.7379 69.5056 0.0 142.533 0.0 -46.7032 12.9792 -3.98685 0.0 0.0 0.0 0.0 0.0 0.0 6.75613 -7.36054 1.21694 0.0 6.92424 0.0 9.02442 4.2419004 -0.533883 0.0 -32.5704 0.0 2.5903 -6.18172 5.30814 0.0 5.14542 0.0 8.72068 10.3069 -7.2188 0.0 -27.092701 0.0 
  1.1034500122070312 6.703170166015625 9.7714599609375 -162.405 79.1882 157.769 5.6713 -15.0588 -2.74058 -3.52085 3.27642 -2.87911 18.1018 40.0027 -13.3323 14.0974 -40.8867 29.2631 -105.8436 -5.17235 6.88228 -49.9536 4.8169 41.4082 0.0 26.0025 0.0 2.31164 -11.4679 -0.192763 0.0 0.0 0.0 0.0 0.0 0.0 101.0133 -6.85942 5.16731 -10.1815 41.7823 69.5193 0.0 142.561 0.0 -46.7395 13.1083 -4.35608 0.0 0.0 0.0 0.0 0.0 0.0 6.71921 -7.33183 1.4015 0.0 6.9456 0.0 9.08196 4.2037 -0.59981 0.0 -32.6007 0.0 2.54731 -6.19223 5.36305 0.0 5.17162 0.0 8.74468 10.30047 -7.17373 0.0 -27.0708 0.0 
  1.1086499786376953 6.701799926757812 9.771530151367188 -162.441 79.2205 157.702 5.66041 -15.0036 -2.63 -3.62011 3.28271 -2.76151 18.1981 40.0203 -13.4353 14.1485 -40.9503 29.3205 -105.7407 -5.41446 6.78216 -50.907 4.05502 40.8333 0.0 26.2113 0.0 2.8692 -11.7916 -1.21414 0.0 0.0 0.0 0.0 0.0 0.0 101.0961 -6.97381 5.18537 -10.2876 41.8096 69.5764 0.0 142.536 0.0 -46.6431 13.1957 -4.32485 0.0 0.0 0.0 0.0 0.0 0.0 6.68204 -7.26335 1.59194 0.0 6.92948 0.0 9.12687 4.186 -0.673761 0.0 -32.624 0.0 2.51605 -6.18759 5.58582 0.0 5.20566 0.0 8.79704 10.283319 -7.29128 0.0 -27.088299 0.0 
